<svg xmlns="http://www.w3.org/2000/svg" xmlns:xlink="http://www.w3.org/1999/xlink" viewBox="0 0 187.44046 93.74641">
  <defs>
    <clipPath id="a" transform="translate(-0.00003 0.00041)">
      <rect width="187.44" height="93.746" fill="none"/>
    </clipPath>
  </defs>

  <path
    d="M.0004,37.4074l.09,19.359a27.50877,27.50877,0,0,0,13.91,23.771l16.81,9.599a27.5176,27.5176,0,0,0,27.49-.139l16.7-9.75a27.48972,27.48972,0,0,0,13.66-23.89l-.09-19.36a27.49,27.49,0,0,0-13.87-23.77l-16.81-9.61a27.54931,27.54931,0,0,0-27.52.13l-16.72,9.76a27.50052,27.50052,0,0,0-13.65,23.9"
    transform="translate(-0.00003 0.00041)" fill="#242265"/>
  <path
    d="M70.7504,55.7473c-3.22-1.52-6.41.51-8.11,3.25a48.52844,48.52844,0,0,1-2.59,4.18,14.00771,14.00771,0,0,1-4,3.45l-.13.08-.13.07a13.99239,13.99239,0,0,1-5,1.78c-1.64.21-3.28.09-4.92.15h-2.95c-1.64-.06-3.28.06-4.92-.15a14.03769,14.03769,0,0,1-5-1.78l-.13-.07-.13-.08a14.24546,14.24546,0,0,1-4-3.45,48.299,48.299,0,0,1-2.63-4.18c-.1-.15-1.46-2.43-1.46-2.43-.77-1.45-1.69-2.81-2.33-4.34a14.0955,14.0955,0,0,1-1-5.22,1.15871,1.15871,0,0,1,0-.3,14.09543,14.09543,0,0,1,1-5.22c.68-1.49,1.56-2.89,2.33-4.34,0,0,2.16-3.63,2.36-4a16.50512,16.50512,0,0,1,3-4.11,19.36689,19.36689,0,0,1,2.84-2,18.63462,18.63462,0,0,1,3.2-1.43,16.25909,16.25909,0,0,1,5.07-.61c3.15,0,6.81-.42,8.26-3.74a5.49984,5.49984,0,0,0-2.71-7.07c-3.22-1.52-6.41.52-8.11,3.25-.87,1.4-1.59,2.87-2.59,4.19a14.25955,14.25955,0,0,1-4,3.45l-.13.07-.13.08a14.22344,14.22344,0,0,1-5,1.77c-1.64.21-3.27.1-4.92.15a9.07621,9.07621,0,0,0-3,.62,5.2295,5.2295,0,0,0-2.76,1.9,5.46783,5.46783,0,0,0-1,3.95,13.25834,13.25834,0,0,0,1.94,5.08,16.21552,16.21552,0,0,1,2,4.65,17.636,17.636,0,0,1,.36,3.49,17.7035,17.7035,0,0,1-.36,3.49,16.33948,16.33948,0,0,1-2,4.65,11.99838,11.99838,0,0,0-2,5.73v.12a5.37363,5.37363,0,0,0,.97,3.17,5.29431,5.29431,0,0,0,3,2,15.29918,15.29918,0,0,0,4.57.56,16.1773,16.1773,0,0,1,5.05.56,17.57114,17.57114,0,0,1,3.2,1.43,18.11721,18.11721,0,0,1,2.84,2,16.1742,16.1742,0,0,1,3,4.1,11.92414,11.92414,0,0,0,4.05,4.61l.11.06a5.59859,5.59859,0,0,0,.83.37h.15a5.42353,5.42353,0,0,0,1.58.24,5.31042,5.31042,0,0,0,1.68-.15h.16a6.15528,6.15528,0,0,0,.83-.37l.11-.06a11.928,11.928,0,0,0,4-4.65,16.41,16.41,0,0,1,3-4.1,18.80962,18.80962,0,0,1,2.85-2,17.81882,17.81882,0,0,1,3.19-1.43,16.30334,16.30334,0,0,1,5.06-.56c3.15,0,6.82-.43,8.26-3.74a5.4904,5.4904,0,0,0-2.71-7.12"
    transform="translate(-0.00003 0.00041)" fill="#c0fc1a"/>
  <path d="M71.1102,37.6975a5.38881,5.38881,0,1,0-.036.021l.036-.021" transform="translate(-0.00003 0.00041)"
        fill="#c0fc1a"/>
  <path
    d="M130.3002,37.8073v.19l-13.93,35.1h-6.15v-.1l5.25-12.14-10.13-22.86v-.16h6.26l5,12.08a37.5691,37.5691,0,0,1,1.591,4.61c.479-1.74,1-3.17,1.429-4.61l4.611-12.08Z"
    transform="translate(-0.00003 0.00041)" fill="#242265"/>
  <polygon
    points="158.34 55.938 158.34 61.448 135.18 61.448 135.18 25.448 157.861 25.448 157.861 30.958 141.441 30.958 141.441 40.498 155.8 40.498 155.8 45.848 141.441 45.848 141.441 55.938 158.34 55.938"
    fill="#242265"/>
  <path
    d="M187.44049,23.2871v38.16h-4l-1-3.549a10.20376,10.20376,0,0,1-8.52,4.099c-6.78,0-11.39-5.09-11.39-12.559,0-7.101,4.77-12.241,11.39-12.241a10.4223,10.4223,0,0,1,7.9,3.39c-.11-2.17-.16-4.19-.16-6.78v-10.52Zm-5.57,26.34c0-4.35-2.7-7.31-6.78-7.31s-6.73,3-6.73,7.31c0,4.311,2.699,7.37,6.73,7.37,4.03,0,6.78-3,6.78-7.37"
    transform="translate(-0.00003 0.00041)" fill="#242265"/>

</svg>
